# xmcd
#
# Track frame offsets:
#	183
#	10383
#	22100
#	34180
#	44505
#	54113
#	64915
#	76400
#	87033
#	97515
#	108168
#	119535
#	134655
#	145435
#	164035
#	176825
#
# Disc length: 2509 seconds
#
# Revision: 1
# Processed by: cddbd v1.5.2PL0 Copyright (c) Steve Scherf et al.
# Submitted via: VUPlayer 2.49
#
DISCID=db09cb10
DTITLE=Andre Brasseur - The Best of ....
DYEAR=1989
DGENRE=Instrumental
TTITLE0=Early Bird
TTITLE1=The Kid
TTITLE2=A Taste of Tobacco
TTITLE3=Special 230
TTITLE4=Pow Pow
TTITLE5=Holiday
TTITLE6=Big Fat Spiritual
TTITLE7=Studio 17
TTITLE8=Atlantide
TTITLE9=The invasion
TTITLE10=Far West
TTITLE11=Ballad On the Beach
TTITLE12=Mad Train
TTITLE13=The Duck
TTITLE14=Devil Dream
TTITLE15=On the Spot
EXTD=
EXTT0=
EXTT1=
EXTT2=
EXTT3=
EXTT4=
EXTT5=
EXTT6=
EXTT7=
EXTT8=
EXTT9=
EXTT10=
EXTT11=
EXTT12=
EXTT13=
EXTT14=
EXTT15=
PLAYORDER=
